<mxfile host="Electron" modified="2023-10-18T23:38:50.322Z" agent="Mozilla/5.0 (Windows NT 10.0; Win64; x64) AppleWebKit/537.36 (KHTML, like Gecko) draw.io/21.8.2 Chrome/114.0.5735.289 Electron/25.8.1 Safari/537.36" etag="0aU-a6N2nArkswYXmKzt" version="21.8.2" type="device">
  <diagram name="Página-1" id="pJLuoMO0Q_-Yad9hbXGi">
    <mxGraphModel dx="978" dy="571" grid="1" gridSize="10" guides="1" tooltips="1" connect="1" arrows="1" fold="1" page="1" pageScale="1" pageWidth="827" pageHeight="1169" math="0" shadow="0">
      <root>
        <mxCell id="0" />
        <mxCell id="1" parent="0" />
        <mxCell id="G98NZdRWw-0VAVInHorX-1" value="Actor - User" style="shape=umlActor;verticalLabelPosition=bottom;verticalAlign=top;html=1;outlineConnect=0;fillColor=#60a917;strokeColor=#2D7600;fontColor=#ffffff;" parent="1" vertex="1">
          <mxGeometry x="30" y="230" width="60" height="110" as="geometry" />
        </mxCell>
        <mxCell id="G98NZdRWw-0VAVInHorX-2" value="SEQUÊNCIA DE COMENTÁRIO" style="rounded=0;whiteSpace=wrap;html=1;fillColor=#60a917;fontColor=#ffffff;strokeColor=#2D7600;" parent="1" vertex="1">
          <mxGeometry x="340" y="10" width="120" height="60" as="geometry" />
        </mxCell>
        <mxCell id="G98NZdRWw-0VAVInHorX-8" style="edgeStyle=orthogonalEdgeStyle;rounded=0;orthogonalLoop=1;jettySize=auto;html=1;dashed=1;dashPattern=8 8;" parent="1" source="G98NZdRWw-0VAVInHorX-3" edge="1">
          <mxGeometry relative="1" as="geometry">
            <mxPoint x="250" y="750" as="targetPoint" />
          </mxGeometry>
        </mxCell>
        <mxCell id="G98NZdRWw-0VAVInHorX-3" value="Front" style="rounded=0;whiteSpace=wrap;html=1;" parent="1" vertex="1">
          <mxGeometry x="190" y="130" width="120" height="60" as="geometry" />
        </mxCell>
        <mxCell id="G98NZdRWw-0VAVInHorX-9" style="edgeStyle=orthogonalEdgeStyle;rounded=0;orthogonalLoop=1;jettySize=auto;html=1;dashed=1;dashPattern=8 8;" parent="1" source="G98NZdRWw-0VAVInHorX-4" edge="1">
          <mxGeometry relative="1" as="geometry">
            <mxPoint x="450" y="750" as="targetPoint" />
          </mxGeometry>
        </mxCell>
        <mxCell id="G98NZdRWw-0VAVInHorX-4" value="Back" style="rounded=0;whiteSpace=wrap;html=1;" parent="1" vertex="1">
          <mxGeometry x="390" y="130" width="120" height="60" as="geometry" />
        </mxCell>
        <mxCell id="G98NZdRWw-0VAVInHorX-10" style="edgeStyle=orthogonalEdgeStyle;rounded=0;orthogonalLoop=1;jettySize=auto;html=1;dashed=1;dashPattern=8 8;" parent="1" source="G98NZdRWw-0VAVInHorX-5" edge="1">
          <mxGeometry relative="1" as="geometry">
            <mxPoint x="650" y="750" as="targetPoint" />
          </mxGeometry>
        </mxCell>
        <mxCell id="G98NZdRWw-0VAVInHorX-25" value="[Salvar comentáro]" style="edgeLabel;html=1;align=center;verticalAlign=middle;resizable=0;points=[];" parent="G98NZdRWw-0VAVInHorX-10" vertex="1" connectable="0">
          <mxGeometry x="0.2907" y="1" relative="1" as="geometry">
            <mxPoint x="-396" y="-101" as="offset" />
          </mxGeometry>
        </mxCell>
        <mxCell id="G98NZdRWw-0VAVInHorX-5" value="Banco" style="rounded=0;whiteSpace=wrap;html=1;" parent="1" vertex="1">
          <mxGeometry x="590" y="130" width="120" height="60" as="geometry" />
        </mxCell>
        <mxCell id="G98NZdRWw-0VAVInHorX-12" value="" style="edgeStyle=none;orthogonalLoop=1;jettySize=auto;html=1;rounded=0;" parent="1" edge="1">
          <mxGeometry width="100" relative="1" as="geometry">
            <mxPoint x="100" y="290" as="sourcePoint" />
            <mxPoint x="250" y="290" as="targetPoint" />
            <Array as="points" />
          </mxGeometry>
        </mxCell>
        <mxCell id="G98NZdRWw-0VAVInHorX-13" value="Escolhe um post" style="text;html=1;align=center;verticalAlign=middle;resizable=0;points=[];autosize=1;strokeColor=none;fillColor=none;" parent="1" vertex="1">
          <mxGeometry x="105" y="268" width="110" height="30" as="geometry" />
        </mxCell>
        <mxCell id="G98NZdRWw-0VAVInHorX-17" value="Manda view com dados do post" style="text;html=1;align=center;verticalAlign=middle;resizable=0;points=[];autosize=1;strokeColor=none;fillColor=none;" parent="1" vertex="1">
          <mxGeometry x="65" y="370" width="190" height="30" as="geometry" />
        </mxCell>
        <mxCell id="G98NZdRWw-0VAVInHorX-18" value="" style="edgeStyle=none;orthogonalLoop=1;jettySize=auto;html=1;rounded=0;" parent="1" edge="1">
          <mxGeometry width="100" relative="1" as="geometry">
            <mxPoint x="255" y="320" as="sourcePoint" />
            <mxPoint x="440" y="320" as="targetPoint" />
            <Array as="points" />
          </mxGeometry>
        </mxCell>
        <mxCell id="G98NZdRWw-0VAVInHorX-19" value="solicita dados post" style="text;html=1;align=center;verticalAlign=middle;resizable=0;points=[];autosize=1;strokeColor=none;fillColor=none;" parent="1" vertex="1">
          <mxGeometry x="280" y="290" width="120" height="30" as="geometry" />
        </mxCell>
        <mxCell id="G98NZdRWw-0VAVInHorX-22" value="Alt" style="shape=umlFrame;whiteSpace=wrap;html=1;pointerEvents=0;width=60;height=20;" parent="1" vertex="1">
          <mxGeometry x="40" y="428" width="690" height="212" as="geometry" />
        </mxCell>
        <mxCell id="G98NZdRWw-0VAVInHorX-24" value="" style="edgeStyle=none;orthogonalLoop=1;jettySize=auto;html=1;rounded=0;entryX=-0.004;entryY=0.505;entryDx=0;entryDy=0;entryPerimeter=0;dashed=1;dashPattern=8 8;" parent="1" edge="1">
          <mxGeometry width="100" relative="1" as="geometry">
            <mxPoint x="666.38" y="608" as="sourcePoint" />
            <mxPoint x="33.62000000000001" y="609" as="targetPoint" />
            <Array as="points" />
          </mxGeometry>
        </mxCell>
        <mxCell id="G98NZdRWw-0VAVInHorX-26" value="" style="edgeStyle=none;orthogonalLoop=1;jettySize=auto;html=1;rounded=0;" parent="1" edge="1">
          <mxGeometry width="100" relative="1" as="geometry">
            <mxPoint x="450" y="384.65999999999997" as="sourcePoint" />
            <mxPoint x="250" y="384.65999999999997" as="targetPoint" />
            <Array as="points" />
          </mxGeometry>
        </mxCell>
        <mxCell id="G98NZdRWw-0VAVInHorX-27" value="salva comentario no post" style="text;html=1;align=center;verticalAlign=middle;resizable=0;points=[];autosize=1;strokeColor=none;fillColor=none;" parent="1" vertex="1">
          <mxGeometry x="460" y="490" width="160" height="30" as="geometry" />
        </mxCell>
        <mxCell id="G98NZdRWw-0VAVInHorX-34" value="Retorna null" style="text;html=1;align=center;verticalAlign=middle;resizable=0;points=[];autosize=1;strokeColor=none;fillColor=none;" parent="1" vertex="1">
          <mxGeometry x="495" y="598" width="90" height="30" as="geometry" />
        </mxCell>
        <mxCell id="G98NZdRWw-0VAVInHorX-35" value="Não autoriza" style="text;html=1;align=center;verticalAlign=middle;resizable=0;points=[];autosize=1;strokeColor=none;fillColor=none;" parent="1" vertex="1">
          <mxGeometry x="285" y="598" width="90" height="30" as="geometry" />
        </mxCell>
        <mxCell id="KE5J7oZR-iN_76gnCI6T-1" value="entrega dados post" style="text;html=1;align=center;verticalAlign=middle;resizable=0;points=[];autosize=1;strokeColor=none;fillColor=none;" vertex="1" parent="1">
          <mxGeometry x="280" y="360" width="130" height="30" as="geometry" />
        </mxCell>
        <mxCell id="KE5J7oZR-iN_76gnCI6T-2" value="" style="edgeStyle=none;orthogonalLoop=1;jettySize=auto;html=1;rounded=0;" edge="1" parent="1">
          <mxGeometry width="100" relative="1" as="geometry">
            <mxPoint x="250" y="400" as="sourcePoint" />
            <mxPoint x="50" y="400" as="targetPoint" />
            <Array as="points" />
          </mxGeometry>
        </mxCell>
        <mxCell id="KE5J7oZR-iN_76gnCI6T-6" value="" style="edgeStyle=none;orthogonalLoop=1;jettySize=auto;html=1;rounded=0;" edge="1" parent="1">
          <mxGeometry width="100" relative="1" as="geometry">
            <mxPoint x="100" y="482" as="sourcePoint" />
            <mxPoint x="250" y="482" as="targetPoint" />
            <Array as="points" />
          </mxGeometry>
        </mxCell>
        <mxCell id="KE5J7oZR-iN_76gnCI6T-7" value="manda form com comentario" style="text;html=1;align=center;verticalAlign=middle;resizable=0;points=[];autosize=1;strokeColor=none;fillColor=none;" vertex="1" parent="1">
          <mxGeometry x="70" y="460" width="180" height="30" as="geometry" />
        </mxCell>
        <mxCell id="KE5J7oZR-iN_76gnCI6T-8" value="envia comentário e post relacionado" style="text;html=1;align=center;verticalAlign=middle;resizable=0;points=[];autosize=1;strokeColor=none;fillColor=none;" vertex="1" parent="1">
          <mxGeometry x="240" y="490" width="220" height="30" as="geometry" />
        </mxCell>
        <mxCell id="KE5J7oZR-iN_76gnCI6T-10" value="" style="edgeStyle=none;orthogonalLoop=1;jettySize=auto;html=1;rounded=0;" edge="1" parent="1">
          <mxGeometry width="100" relative="1" as="geometry">
            <mxPoint x="250" y="519.31" as="sourcePoint" />
            <mxPoint x="400" y="519.31" as="targetPoint" />
            <Array as="points" />
          </mxGeometry>
        </mxCell>
        <mxCell id="KE5J7oZR-iN_76gnCI6T-11" value="" style="edgeStyle=none;orthogonalLoop=1;jettySize=auto;html=1;rounded=0;" edge="1" parent="1">
          <mxGeometry width="100" relative="1" as="geometry">
            <mxPoint x="450" y="519.31" as="sourcePoint" />
            <mxPoint x="600" y="519.31" as="targetPoint" />
            <Array as="points" />
          </mxGeometry>
        </mxCell>
        <mxCell id="KE5J7oZR-iN_76gnCI6T-12" value="" style="edgeStyle=none;orthogonalLoop=1;jettySize=auto;html=1;rounded=0;" edge="1" parent="1">
          <mxGeometry width="100" relative="1" as="geometry">
            <mxPoint x="460" y="340" as="sourcePoint" />
            <mxPoint x="610" y="340" as="targetPoint" />
            <Array as="points" />
          </mxGeometry>
        </mxCell>
        <mxCell id="KE5J7oZR-iN_76gnCI6T-13" value="&lt;span style=&quot;color: rgb(240, 240, 240); font-family: Helvetica; font-size: 12px; font-style: normal; font-variant-ligatures: normal; font-variant-caps: normal; font-weight: 400; letter-spacing: normal; orphans: 2; text-align: center; text-indent: 0px; text-transform: none; widows: 2; word-spacing: 0px; -webkit-text-stroke-width: 0px; background-color: rgb(27, 29, 30); text-decoration-thickness: initial; text-decoration-style: initial; text-decoration-color: initial; float: none; display: inline !important;&quot;&gt;solicita dados post&lt;/span&gt;" style="text;whiteSpace=wrap;html=1;" vertex="1" parent="1">
          <mxGeometry x="460" y="310" width="130" height="40" as="geometry" />
        </mxCell>
        <mxCell id="KE5J7oZR-iN_76gnCI6T-15" value="" style="edgeStyle=none;orthogonalLoop=1;jettySize=auto;html=1;rounded=0;" edge="1" parent="1">
          <mxGeometry width="100" relative="1" as="geometry">
            <mxPoint x="650" y="374.65999999999997" as="sourcePoint" />
            <mxPoint x="450" y="374.65999999999997" as="targetPoint" />
            <Array as="points" />
          </mxGeometry>
        </mxCell>
        <mxCell id="KE5J7oZR-iN_76gnCI6T-16" value="entrega dados post" style="text;html=1;align=center;verticalAlign=middle;resizable=0;points=[];autosize=1;strokeColor=none;fillColor=none;" vertex="1" parent="1">
          <mxGeometry x="470" y="350" width="130" height="30" as="geometry" />
        </mxCell>
        <mxCell id="KE5J7oZR-iN_76gnCI6T-19" value="" style="edgeStyle=none;orthogonalLoop=1;jettySize=auto;html=1;rounded=0;" edge="1" parent="1">
          <mxGeometry width="100" relative="1" as="geometry">
            <mxPoint x="650" y="554.66" as="sourcePoint" />
            <mxPoint x="450" y="554.66" as="targetPoint" />
            <Array as="points" />
          </mxGeometry>
        </mxCell>
        <mxCell id="KE5J7oZR-iN_76gnCI6T-20" value="ok" style="text;html=1;align=center;verticalAlign=middle;resizable=0;points=[];autosize=1;strokeColor=none;fillColor=none;" vertex="1" parent="1">
          <mxGeometry x="515" y="530" width="40" height="30" as="geometry" />
        </mxCell>
        <mxCell id="KE5J7oZR-iN_76gnCI6T-22" value="" style="edgeStyle=none;orthogonalLoop=1;jettySize=auto;html=1;rounded=0;" edge="1" parent="1">
          <mxGeometry width="100" relative="1" as="geometry">
            <mxPoint x="450" y="574.66" as="sourcePoint" />
            <mxPoint x="250" y="574.66" as="targetPoint" />
            <Array as="points" />
          </mxGeometry>
        </mxCell>
        <mxCell id="KE5J7oZR-iN_76gnCI6T-23" value="ok" style="text;html=1;align=center;verticalAlign=middle;resizable=0;points=[];autosize=1;strokeColor=none;fillColor=none;" vertex="1" parent="1">
          <mxGeometry x="315" y="550" width="40" height="30" as="geometry" />
        </mxCell>
        <mxCell id="KE5J7oZR-iN_76gnCI6T-24" value="" style="edgeStyle=none;orthogonalLoop=1;jettySize=auto;html=1;rounded=0;" edge="1" parent="1">
          <mxGeometry width="100" relative="1" as="geometry">
            <mxPoint x="240" y="584.66" as="sourcePoint" />
            <mxPoint x="40" y="584.66" as="targetPoint" />
            <Array as="points" />
          </mxGeometry>
        </mxCell>
        <mxCell id="KE5J7oZR-iN_76gnCI6T-25" value="devolve post com comentários&lt;br&gt;inseridos" style="text;html=1;align=center;verticalAlign=middle;resizable=0;points=[];autosize=1;strokeColor=none;fillColor=none;" vertex="1" parent="1">
          <mxGeometry x="60" y="550" width="190" height="40" as="geometry" />
        </mxCell>
      </root>
    </mxGraphModel>
  </diagram>
</mxfile>
